Coordinates
version=1
nRows=8
nColumns=63
inDegrees=yes

Units are S.I. units (second, meters, Newtons, ...)
If the header above contains a line with 'inDegrees', this indicates whether rotational values are in degrees (yes) or radians (no).

endheader
time	pelvis_tilt	pelvis_list	pelvis_rotation	pelvis_tx	pelvis_ty	pelvis_tz	hip_flexion_r	hip_adduction_r	hip_rotation_r	knee_angle_r	knee_angle_r_beta	ankle_angle_r	subtalar_angle_r	mtp_angle_r	hip_flexion_l	hip_adduction_l	hip_rotation_l	knee_angle_l	knee_angle_l_beta	ankle_angle_l	subtalar_angle_l	mtp_angle_l	L5_S1_Flex_Ext	L5_S1_Lat_Bending	L5_S1_axial_rotation	L4_L5_Flex_Ext	L4_L5_Lat_Bending	L4_L5_axial_rotation	L3_L4_Flex_Ext	L3_L4_Lat_Bending	L3_L4_axial_rotation	L2_L3_Flex_Ext	L2_L3_Lat_Bending	L2_L3_axial_rotation	L1_L2_Flex_Ext	L1_L2_Lat_Bending	L1_L2_axial_rotation	L1_T12_Flex_Ext	L1_T12_Lat_Bending	L1_T12_axial_rotation	Abs_r3	Abs_r2	Abs_r1	Abs_t1	Abs_t2	neck_flexion	neck_bending	neck_rotation	arm_flex_r	arm_add_r	arm_rot_r	elbow_flex_r	pro_sup_r	wrist_flex_r	wrist_dev_r	arm_flex_l	arm_add_l	arm_rot_l	elbow_flex_l	pro_sup_l	wrist_flex_l	wrist_dev_l
      0.00000000	      5.43804968	     -0.73312399	    125.08788282	      0.28965905	      0.57669045	      0.92289222	      2.34142694	      0.74713562	    -32.52597070	     11.10640202	      0.19384328	     31.93225803	     16.51815065	      0.00000000	      3.51617435	     -1.18742654	      6.71603285	      9.11225708	      0.15903889	     28.45200273	     10.18678665	      0.00000000	      0.14296566	      0.56706268	     -2.70623601	      0.26550153	      0.75419336	     -2.87537576	      0.23487829	      1.37875619	     -2.87537576	      0.16339546	      1.37875619	     -2.36795651	      0.13275791	      1.15635421	     -2.19881676	      0.08169058	      0.87838008	     -2.02967701	      1.02118943	      6.41472640	    -15.05127282	      0.00000000	      0.00000000	     24.77888213	      0.35716431	      4.75834241	     15.99790085	    -12.68730963	     48.48076685	     45.70901904	     88.82449997	     29.21550527	     32.22319613	     21.03518230	     -4.88131783	     65.87174002	     45.79711232	     89.05420518	     23.14205548	     30.40427501
      0.02439024	      5.82359968	     -1.02341187	    125.12271796	      0.29054386	      0.57554863	      0.92506167	      3.50429704	      0.60078046	    -32.27358103	     12.10899515	      0.21134183	     32.24829276	     16.16075772	      0.00000000	      4.69605311	     -1.29084014	      6.11104837	     10.14870938	      0.17712839	     29.12967327	     10.15822352	      0.00000000	      0.15226044	      0.58316142	     -2.75427371	      0.28276286	      0.77560469	     -2.92641581	      0.25014867	      1.41789869	     -2.92641581	      0.17401846	      1.41789869	     -2.40998949	      0.14138904	      1.18918278	     -2.23784739	      0.08700161	      0.90331705	     -2.06570528	      1.08758109	      6.59683866	    -15.31844407	      0.00000000	      0.00000000	     25.41734451	      0.58191584	      4.33861151	     16.27051513	    -12.40308914	     48.46471545	     45.17024328	     88.67707069	     28.85044126	     32.69072343	     20.13406259	     -4.09255047	     61.76956947	     44.46447266	     88.61898917	     21.80035134	     28.06838800
      0.04878049	      6.15858958	     -1.26970976	    125.08176022	      0.29142660	      0.57457745	      0.92654042	      4.42829830	      0.61933165	    -31.33556674	     12.85109612	      0.22429394	     32.26666836	     14.70723596	      0.00000000	      5.60503991	     -1.52100556	      4.51628341	     10.89304740	      0.19011954	     29.68632743	     11.59420636	      0.00000000	      0.16561935	      0.60693202	     -2.87096082	      0.30757170	      0.80721959	     -3.05039587	      0.27209604	      1.47569452	     -3.05039587	      0.18928636	      1.47569452	     -2.51209072	      0.15379413	      1.23765578	     -2.33265567	      0.09463490	      0.94013770	     -2.15322062	      1.18300248	      6.86573643	    -15.96742281	      0.00000000	      0.00000000	     25.87951950	      1.03099053	      5.24093485	     17.01439473	    -12.10859140	     49.65940905	     44.55393234	     88.53810950	     28.76669844	     32.90347912	     19.21011932	     -3.50009967	     57.79443090	     43.64661253	     88.34727153	     21.52686999	     27.85028028
      0.07317073	      6.29775132	     -1.48805241	    124.79531749	      0.29253697	      0.57389651	      0.92762917	      5.17587839	      0.50556589	    -30.25375356	     13.64597585	      0.23816721	     32.14995920	     13.23887215	      0.00000000	      6.21423052	     -1.65152101	      2.86336956	     11.44753811	      0.19979723	     30.02530971	     13.04649003	      0.00000000	      0.17055122	      0.60358709	     -2.84318972	      0.31673068	      0.80277083	     -3.02088908	      0.28019861	      1.46756165	     -3.02088908	      0.19492299	      1.46756165	     -2.48779100	      0.15837387	      1.23083479	     -2.31009165	      0.09745297	      0.93495640	     -2.13239229	      1.21823034	      6.82789787	    -15.81296826	      0.00000000	      0.00000000	     26.13508599	      1.20430924	      5.06542899	     17.23799021	    -11.95494103	     49.72112268	     44.29712851	     88.46488389	     28.58053192	     33.03870018	     19.30379571	     -3.17776361	     57.16062781	     42.93803642	     88.06378859	     21.11160256	     27.37155852
      0.09756098	      6.37270756	     -1.67674652	    124.54986278	      0.29346112	      0.57335743	      0.92837921	      5.78659617	      0.46933189	    -28.65606405	     14.32712199	      0.25005545	     31.88661726	     10.87212566	      0.00000000	      6.59520970	     -1.59324311	      2.93637696	     11.74072570	      0.20491432	     29.96846378	     12.35487347	      0.00000000	      0.17732373	      0.59771236	     -2.81722365	      0.32930791	      0.79495744	     -2.99330013	      0.29132516	      1.45327783	     -2.99330013	      0.20266329	      1.45327783	     -2.46507070	      0.16466282	      1.21885505	     -2.28899422	      0.10132278	      0.92585645	     -2.11291774	      1.26660569	      6.76144177	    -15.66855279	      0.00000000	      0.00000000	     26.31878964	      1.38225265	      5.09555970	     17.35482613	    -11.88747609	     49.75716175	     44.23230309	     88.41880425	     28.25815295	     33.09775233	     19.51281933	     -3.05220990	     57.27545655	     42.50950999	     88.00813329	     21.04524808	     27.49666292
      0.12195122	      6.37696663	     -1.79605120	    124.45592412	      0.29387720	      0.57304798	      0.92889813	      6.08037345	      0.28851370	    -28.67091831	     14.84841902	      0.25915380	     31.78577784	     10.50759691	      0.00000000	      6.77711741	     -1.53121465	      2.84438045	     11.87542932	      0.20726534	     29.86147623	     12.21290346	      0.00000000	      0.18049085	      0.59140642	     -2.80997143	      0.33518955	      0.78657054	     -2.98559464	      0.29652841	      1.43794558	     -2.98559464	      0.20628299	      1.43794558	     -2.45872500	      0.16760380	      1.20599598	     -2.28310179	      0.10313247	      0.91608855	     -2.10747857	      1.28922808	      6.69010776	    -15.62821810	      0.00000000	      0.00000000	     26.41634387	      1.48906830	      5.11669781	     17.36754601	    -11.83834351	     49.69788914	     44.14930741	     88.38029288	     28.03005781	     33.03479968	     19.80806758	     -3.04575574	     58.09009792	     42.24485546	     88.18931181	     21.00685737	     27.74807850
      0.14634146	      6.35511250	     -1.91870624	    124.21455184	      0.29473499	      0.57286500	      0.92891473	      6.30199880	      0.19628185	    -28.45216416	     15.14893640	      0.26439882	     31.65415650	     10.04312072	      0.00000000	      6.84503898	     -1.48326932	      2.72073350	     11.85522865	      0.20691277	     29.63578711	     11.97074110	      0.00000000	      0.18547691	      0.57572318	     -2.76373954	      0.34444917	      0.76571183	     -2.93647326	      0.30472002	      1.39981334	     -2.93647326	      0.21198156	      1.39981334	     -2.41827210	      0.17223386	      1.17401471	     -2.24553837	      0.10598151	      0.89179520	     -2.07280465	      1.32484303	      6.51269574	    -15.37109018	      0.00000000	      0.00000000	     26.46069930	      1.57573761	      5.07029393	     17.14758119	    -11.74157312	     49.64481512	     44.14369469	     88.27603023	     27.22436827	     32.84014509	     20.13336874	     -3.34475824	     59.41032103	     42.39158585	     88.42138977	     20.95903091	     28.06245256
      0.17073171	      6.16684623	     -2.02927236	    123.87018714	      0.29545113	      0.57294153	      0.92835855	      6.35131709	      0.04401707	    -27.87754328	     15.23829661	      0.26595845	     31.69340335	      9.65874668	      0.00000000	      6.64761120	     -1.29621188	      2.59860979	     11.56256817	      0.20180488	     29.47875830	     11.71074452	      0.00000000	      0.18855739	      0.53746983	     -2.66738837	      0.35016993	      0.71483488	     -2.83410015	      0.30978094	      1.30680415	     -2.83410015	      0.21550224	      1.30680415	     -2.33396483	      0.17509439	      1.09600848	     -2.16725305	      0.10774169	      0.83254077	     -2.00054128	      1.34684659	      6.07996625	    -14.83521391	      0.00000000	      0.00000000	     26.40545230	      1.81249873	      4.67595982	     16.63758364	    -11.62893890	     49.57396009	     44.11955197	     87.98961975	     25.62221139	     32.53259210	     20.60357900	     -3.65055106	     61.54836729	     42.53158385	     88.62412388	     20.92231314	     28.69304646
